<svg xmlns="http://www.w3.org/2000/svg" style="width:0; height:0; visibility:hidden;">
    <symbol id="icon-arrow-down" viewBox="0 0 14 7">
       <path d="M12.913,0.145L6.991,5.605L1.069,0.145c-0.245-0.226-0.642-0.226-0.887,0c-0.245,0.226-0.245,0.591,0,0.817l6.365,5.87
	c0.123,0.113,0.283,0.17,0.443,0.17c0.161,0,0.321-0.057,0.443-0.169l6.365-5.87c0.245-0.226,0.245-0.591,0-0.817
	C13.554-0.082,13.157-0.082,12.913,0.145z"/> 
    </symbol>
    <symbol id="icon-arrow-left" viewBox="3.477 -3.503 7.027 13.982">
       <path d="M10.334,9.411L4.873,3.489l5.461-5.922c0.226-0.245,0.226-0.643,0-0.887c-0.227-0.245-0.591-0.245-0.817,0l-5.87,6.364
	c-0.113,0.123-0.17,0.283-0.17,0.443c0,0.161,0.057,0.321,0.169,0.443l5.87,6.365c0.227,0.245,0.591,0.245,0.817,0
	C10.561,10.053,10.561,9.655,10.334,9.411z"/> 
    </symbol>
    <symbol id="icon-arrow-right" viewBox="3.476 -3.503 7.028 13.982">
       <path d="M3.646-2.435l5.461,5.922L3.646,9.409c-0.226,0.245-0.226,0.643,0,0.887c0.226,0.245,0.591,0.245,0.817,0l5.871-6.364
	c0.113-0.123,0.17-0.283,0.17-0.443c0-0.161-0.057-0.321-0.169-0.443L4.464-3.319c-0.226-0.245-0.591-0.245-0.817,0
	C3.419-3.076,3.419-2.679,3.646-2.435z"/> 
    </symbol>
    <symbol id="icon-arrow-up" viewBox="-0.001 -0.025 13.982 7.027">
       <path d="M1.067,6.832l5.922-5.461l5.922,5.461c0.245,0.226,0.643,0.226,0.887,0c0.245-0.227,0.245-0.591,0-0.817l-6.364-5.87
	C7.311,0.031,7.15-0.025,6.99-0.025c-0.161,0-0.321,0.057-0.443,0.169l-6.365,5.87c-0.245,0.227-0.245,0.591,0,0.817
	C0.426,7.059,0.823,7.059,1.067,6.832z"/> 
    </symbol>
    <symbol id="icon-balloon" viewBox="-1.501 0 33 30">
       <path d="M4.686,30c-0.115,0-0.229-0.025-0.333-0.079c-0.219-0.11-0.354-0.319-0.354-0.546v-4.3c-3.5-2.733-5.5-6.615-5.5-10.7
	C-1.502,6.449,5.9,0,14.999,0c9.099,0,16.5,6.449,16.5,14.375s-7.401,14.375-16.5,14.375c-2.113,0-4.169-0.344-6.116-1.021
	L5.05,29.904C4.939,29.968,4.813,30,4.686,30z M14.999,1.25c-8.34,0-15.125,5.888-15.125,13.125c0,3.809,1.915,7.425,5.25,9.926
	c0.158,0.12,0.25,0.297,0.25,0.482v3.464l3.073-1.746c0.187-0.106,0.422-0.124,0.624-0.049c1.88,0.694,3.873,1.048,5.928,1.048
	c8.34,0,15.125-5.889,15.125-13.125C30.124,7.138,23.338,1.25,14.999,1.25z"/> <path d="M6.749,13.75c0.759,0,1.375,0.56,1.375,1.25c0,0.689-0.615,1.25-1.375,1.25S5.373,15.689,5.373,15
	C5.373,14.31,5.989,13.75,6.749,13.75z"/> <path d="M14.999,13.75c0.76,0,1.375,0.56,1.375,1.25c0,0.689-0.615,1.25-1.375,1.25c-0.759,0-1.376-0.561-1.376-1.25
	C13.623,14.31,14.24,13.75,14.999,13.75z"/> <path d="M23.248,13.75c0.76,0,1.375,0.56,1.375,1.25c0,0.689-0.615,1.25-1.375,1.25c-0.759,0-1.375-0.561-1.375-1.25
	C21.873,14.31,22.489,13.75,23.248,13.75z"/> 
    </symbol>
    <symbol id="icon-cellphone" viewBox="0 0 16 24">
       <path d="M13.839,24H2.198c-0.544-0.035-0.984-0.211-1.333-0.524c-0.6-0.491-0.894-1.124-0.859-1.87l0-19.271
	C0.037,0.973,0.78,0.169,2.153,0.003L13.807,0c1.352,0.169,2.093,0.967,2.191,2.31L16,21.622c-0.099,1.333-0.835,2.144-2.128,2.373
	L13.839,24z M13.759,0.721L2.198,0.725C1.24,0.843,0.762,1.358,0.739,2.345v19.277c-0.024,0.532,0.174,0.954,0.606,1.308
	c0.239,0.214,0.521,0.324,0.876,0.347h11.55c0.946-0.177,1.421-0.712,1.494-1.682L15.265,2.336
	C15.192,1.364,14.714,0.843,13.759,0.721z M8.002,22.719c-0.73,0-1.324-0.585-1.324-1.305s0.594-1.306,1.324-1.306
	c0.729,0,1.322,0.586,1.322,1.306S8.731,22.719,8.002,22.719z M14.37,19.771H1.564V3.714H14.37V19.771L14.37,19.771z M2.299,19.045
	h11.337V4.438H2.299V19.045z"/> 
    </symbol>
    <symbol id="icon-close" viewBox="0 0 612 792">
       <g> <g> <rect x="297.3" y="-28.2" transform="matrix(0.7071 0.7071 -0.7071 0.7071 369.6397 -100.389)" width="17.4" height="848.4"/> </g> <g> <rect x="-118.2" y="387.3" transform="matrix(0.7071 0.7071 -0.7071 0.7071 369.6396 -100.389)" width="848.4" height="17.4"/> </g> </g> 
    </symbol>
    <symbol id="icon-email" viewBox="1.599 0 20 15">
       <path d="M21.256,0H2.003H1.599v15h20V0H21.256z M8.499,7.318l3.147,3.058l2.97-2.895l5.744,6.673H2.614L8.499,7.318z M2.327,13.293
	V1.325l5.611,5.449L2.327,13.293z M15.175,6.937l5.698-5.554v12.176L15.175,6.937z M20.293,0.846l-8.648,8.427L2.968,0.846H20.293z"/> 
    </symbol>
    <symbol id="icon-facebook" viewBox="0 0 96.125 96.123">
       <g> <path d="M72.089,0.02L59.625,0C45.62,0,36.57,9.285,36.57,23.656v10.907H24.037c-1.083,0-1.96,0.878-1.96,1.961v15.803
		c0,1.083,0.878,1.96,1.96,1.96H36.57v39.876c0,1.083,0.877,1.96,1.96,1.96h16.353c1.082,0,1.959-0.878,1.959-1.96V54.287h14.654
		c1.084,0,1.961-0.877,1.961-1.96l0.006-15.803c0-0.52-0.207-1.018-0.574-1.386c-0.367-0.368-0.867-0.575-1.387-0.575h-14.66v-9.246
		c0-4.444,1.06-6.7,6.849-6.7l8.397-0.003c1.082,0,1.959-0.878,1.959-1.96V1.98C74.046,0.899,73.169,0.022,72.089,0.02z"/> </g> 
    </symbol>
    <symbol id="icon-favorite" viewBox="0 0 26.039 24.959">
       <path stroke-miterlimit="10" d="M13.019,1.084l3.84,7.388l8.159,1.397l-5.786,5.964l1.202,8.251
	l-7.416-3.702l-7.416,3.702l1.202-8.251L1.02,9.869l8.159-1.397L13.019,1.084z"/> 
    </symbol>
    <symbol id="icon-favorites" viewBox="0 0 28 21">
       <path d="M24.238,21H4.351V9.608H0L13.932,0l3.028,2.037V0.1h3.918v4.584l7.14,4.79l-3.78,0.401V21z M5.278,20.098h18.034V9.066
	l2.13-0.226l-5.49-3.684V1.001h-2.064v2.756l-3.949-2.656L2.91,8.707h2.368V20.098L5.278,20.098z"/> <path d="M19.478,10.665c0.006-0.963-0.477-1.531-0.899-1.841c-0.691-0.511-1.672-0.67-2.502-0.404
	c-0.851,0.276-2.065,1.786-2.065,1.786s-1.209-1.51-2.065-1.786c-0.827-0.266-1.811-0.107-2.501,0.404
	C9.008,9.147,8.5,9.755,8.552,10.805c0.117,1.603,3.407,4.313,4.987,5.616c0.218,0.178,0.416,0.342,0.589,0.486
	c0.11-0.094,0.232-0.198,0.365-0.308c0.264-0.223,0.577-0.489,0.915-0.786c-1.057-0.985-1.896-1.978-1.958-2.814
	c-0.039-0.768,0.264-1.427,0.851-1.861c0.629-0.468,1.521-0.608,2.273-0.367c0.505,0.162,0.919,0.468,1.187,0.847
	c0.271-0.378,0.689-0.685,1.195-0.847C19.126,10.716,19.298,10.681,19.478,10.665z M19.183,11.695
	c-0.101,0.01-0.198,0.031-0.292,0.063c-0.485,0.156-1.175,1.014-1.175,1.014s-0.688-0.858-1.173-1.014
	c-0.472-0.154-1.03-0.063-1.423,0.229c-0.251,0.184-0.541,0.529-0.509,1.125c0.04,0.564,0.763,1.357,1.521,2.061
	c0.235,0.221,0.473,0.431,0.697,0.618c0.229,0.196,0.443,0.373,0.619,0.517c0.124,0.101,0.236,0.196,0.336,0.279
	c0.061-0.055,0.133-0.114,0.205-0.178c0.899-0.761,2.769-2.348,2.834-3.299c0.032-0.593-0.257-0.938-0.508-1.122
	c-0.058-0.044-0.117-0.08-0.183-0.114C19.849,11.72,19.506,11.657,19.183,11.695z M20.418,10.751
	c0.293,0.079,0.568,0.208,0.808,0.386c0.587,0.434,0.893,1.094,0.851,1.855c-0.091,1.283-1.892,2.912-3.573,4.341
	c-0.201,0.17-0.55,0.46-0.668,0.568c-0.143-0.123-0.547-0.475-0.798-0.682c-0.313-0.253-0.625-0.517-0.934-0.782
	c-0.33,0.291-0.661,0.574-0.99,0.853c-0.3,0.254-0.817,0.688-0.997,0.847c-0.208-0.184-0.811-0.705-1.186-1.015
	c-2.504-2.063-5.185-4.418-5.317-6.259C7.553,9.72,8.002,8.741,8.877,8.094c0.929-0.691,2.252-0.903,3.369-0.545
	c0.752,0.244,1.371,0.697,1.766,1.259c0.4-0.562,1.019-1.018,1.769-1.259c1.113-0.358,2.437-0.143,3.37,0.545
	C19.999,8.723,20.445,9.663,20.418,10.751z"/> 
    </symbol>
    <symbol id="icon-google-plus" viewBox="11.475 0 581.4 604.35">
       <g> <path d="M516.375,255v-76.5h-51V255h-76.5v51h76.5v76.5h51V306h76.5v-51H516.375z M320.025,341.7l-28.051-20.4
            c-10.2-7.648-20.399-17.85-20.399-35.7s12.75-33.15,25.5-40.8c33.149-25.5,66.3-53.55,66.3-109.65c0-53.55-33.15-84.15-51-99.45
            h43.35L386.325,0h-158.1c-112.2,0-168.3,71.4-168.3,147.9c0,58.65,45.9,122.4,127.5,122.4h20.4c-2.55,7.65-10.2,20.4-10.2,33.15
            c0,25.5,10.2,35.699,22.95,51c-35.7,2.55-102,10.199-150.45,40.8c-45.9,28.05-58.65,66.3-58.65,94.35
            c0,58.65,53.55,114.75,168.3,114.75c137.7,0,204.001-76.5,204.001-150.448C383.775,400.35,355.725,372.3,320.025,341.7z
             M126.225,109.65c0-56.1,33.15-81.6,68.85-81.6c66.3,0,102,89.25,102,140.25c0,66.3-53.55,79.05-73.95,79.05
            C159.375,247.35,126.225,168.3,126.225,109.65z M218.024,568.65c-84.15,0-137.7-38.25-137.7-94.352c0-56.1,51-73.95,66.3-81.6
            c33.15-10.2,76.5-12.75,84.15-12.75s12.75,0,17.85,0c61.2,43.35,86.7,61.2,86.7,102C335.324,530.4,286.875,568.65,218.024,568.65z
            "/> </g> 
    </symbol>
    <symbol id="icon-linkedin" viewBox="0 9.558 430.117 411.001">
       <g> <path id="LinkedIn" d="M430.117,261.543V420.56h-92.188V272.193c0-37.271-13.334-62.708-46.702-62.708
		c-25.474,0-40.633,17.142-47.302,33.724c-2.432,5.929-3.058,14.179-3.058,22.478V420.56h-92.219c0,0,1.242-251.285,0-277.319
		h92.209v39.309c-0.187,0.294-0.43,0.611-0.605,0.896h0.605v-0.896c12.252-18.869,34.131-45.824,83.103-45.824
		C384.633,136.724,430.117,176.361,430.117,261.543z M52.183,9.558C20.635,9.558,0,30.251,0,57.463
		c0,26.619,20.038,47.94,50.959,47.94h0.616c32.159,0,52.159-21.317,52.159-47.94C103.128,30.251,83.734,9.558,52.183,9.558z
		 M5.477,420.56h92.184V143.24H5.477V420.56z"/> </g> 
    </symbol>
    <symbol id="icon-logo-a3" viewBox="0 0 472 511.949">
       <path fill="#FFFFFF" d="M200.123,267.93v-21.428h68.955v17.4l-23.038,26.261c9.022,1.506,16.002,5.292,20.944,11.358
	c4.938,6.067,7.412,13.078,7.412,21.023c0,11.816-4.004,21.08-12.004,27.792c-8.004,6.714-18.265,10.935-30.691,10.07
	c-18.534-1.29-33.753-10.269-46.534-19.074l7.75-23.667c6.875,7.041,18.25,20.333,39.75,20.829
	c5.046,0.116,9.209-1.231,12.487-3.706c3.272-2.471,4.914-6.042,4.914-10.713c0-4.674-1.881-8.378-5.642-11.117
	s-8.97-4.107-15.626-4.107c-3.545,0-8.539,1.021-14.984,3.062v-18.527l21.59-25.456H200.123z"/> <g> <g enable-background="new    "> <path fill="#0B233E" d="M99.351,511.949v-35.348h9.115v35.348H99.351L99.351,511.949z"/> </g> <g enable-background="new    "> <path fill="#0B233E" d="M156.429,511.949V488.95l-8.956,22.999h-4.028l-8.903-22.999v22.999h-9.115v-35.348h12.666l7.366,19.185
			l7.419-19.185h12.666v35.348H156.429L156.429,511.949z"/> </g> <g enable-background="new    "> <path fill="#0B233E" d="M180.653,494.303c0-10.758,8.108-18.282,18.918-18.282c10.811,0,18.866,7.524,18.866,18.282
			c0,10.757-8.055,18.282-18.866,18.282C188.761,512.585,180.653,505.06,180.653,494.303z M209.164,494.303
			c0-5.775-3.763-10.229-9.592-10.229c-5.882,0-9.645,4.452-9.645,10.229c0,5.724,3.762,10.229,9.645,10.229
			C205.401,504.53,209.164,500.025,209.164,494.303z M201.533,473.635h-5.511l6.73-7.631h7.208L201.533,473.635z"/> </g> <g enable-background="new    "> <path fill="#0B233E" d="M242.131,511.949l-13.301-35.348h10.334l8.689,25.49l8.744-25.49h10.334l-13.354,35.348H242.131
			L242.131,511.949z"/> <path fill="#0B233E" d="M279.496,511.949v-35.348h25.914v7.949h-16.799v5.511h16.428v7.949h-16.428V504h16.799v7.949H279.496z"/> <path fill="#0B233E" d="M320.678,511.949v-35.348h9.114v35.348H320.678L320.678,511.949z"/> </g> <g enable-background="new    "> <path fill="#0B233E" d="M345.48,506.968l4.821-6.836c2.543,2.544,6.465,4.663,11.287,4.663c3.127,0,5.035-1.219,5.035-2.914
			c0-4.823-20.031-0.954-20.031-14.574c0-5.935,5.033-11.233,14.097-11.233c5.67,0,10.599,1.695,14.36,4.929l-4.98,6.519
			c-2.969-2.438-6.837-3.656-10.334-3.656c-2.649,0-3.815,1.061-3.815,2.544c0,4.505,19.979,1.219,19.979,14.36
			c0,7.103-5.246,11.817-14.732,11.817C354.012,512.585,349.031,510.359,345.48,506.968z"/> </g> </g> <polygon fill="#FFFFFF" points="191.474,0.001 18.14,448.001 117.224,448.001 254.143,78.668 283.861,0.001 "/> <polygon fill="#0B233E" points="298,0.001 173.333,0.001 0,448.001 99.083,448.001 236,78.668 372.666,448.001 472,448.001 "/> 
    </symbol>
    <symbol id="icon-map" viewBox="256.013 356.754 100 78.625">
       <path id="XMLID_156_" d="M344.29,406.082c-0.305-0.608-0.935-1.239-1.849-1.239h-31.428c4.938-9.875,10.483-22.815,10.483-28.971
	c0-10.483-8.33-19.118-18.813-19.118s-18.813,8.634-18.813,19.118c0,6.155,5.851,19.118,10.483,28.971h-25.273
	c-0.936,0-1.544,0.608-1.849,1.239l-11.092,26.513c-0.305,0.609,0,1.24,0.304,1.849c0.305,0.609,0.936,0.936,1.849,0.936h95.568
	c0.608,0,1.239-0.305,1.849-0.936c0.305-0.608,0.305-1.239,0.305-1.849L344.29,406.082z M302.684,361.061
	c8.025,0,14.79,6.786,14.79,14.79c0,5.242-5.852,18.487-11.093,28.97l0,0l0,0c-1.24,2.784-2.458,4.938-3.697,7.091
	c-5.242-10.179-14.79-29.275-14.79-36.061C287.894,367.847,294.68,361.061,302.684,361.061z M300.835,417.479
	c0.304,0.609,0.935,0.936,1.849,0.936c0.609,0,1.544-0.305,1.849-0.936c0.305-0.304,2.153-3.697,4.307-8.329h32.059l1.849,4.632
	l-41.911,10.18l-24.664-14.79h20.336C298.986,413.781,300.835,417.175,300.835,417.479z M270.016,409.779l14.79,8.939l-20.662,5.242
	L270.016,409.779z M262.294,428.897l27.752-7.09l15.725,9.548h-44.695L262.294,428.897z M313.775,431.355l-7.699-4.633l38.54-9.548
	l5.851,14.181H313.775z M311.622,376.481c0-4.938-4.001-8.939-8.938-8.939s-8.939,4.002-8.939,8.939
	c0,4.937,4.001,8.939,8.939,8.939S311.622,381.418,311.622,376.481z M302.684,381.114c-2.784,0-4.938-2.153-4.938-4.937
	c0-2.458,2.153-4.633,4.938-4.633c2.784,0,4.938,2.153,4.938,4.938C307.621,378.939,305.467,381.114,302.684,381.114z"/> 
    </symbol>
    <symbol id="icon-phone-2" viewBox="1 0 23 20">
       <path d="M12.5,7.692c-1.942,0-3.518,1.384-3.518,3.078c0,1.692,1.576,3.076,3.518,3.076c1.942,0,3.519-1.385,3.519-3.076
	C16.019,9.077,14.442,7.692,12.5,7.692z M12.5,12.309c-1.154,0-2.11-0.709-2.11-1.539c0-0.832,0.957-1.539,2.11-1.539
	c1.153,0,2.11,0.708,2.11,1.539C14.61,11.6,13.653,12.309,12.5,12.309z"/> <path d="M18.484,0H6.516C5.051,0,3.674,0.616,2.632,1.754C1.591,2.893,1.027,4.4,1.027,6v1.662h3.208L1,11.23v4.152v1.539V20h23
	v-3.077v-1.539V11.23l-3.236-3.54H24v-1.66c0-1.6-0.563-3.107-1.604-4.246C21.355,0.616,19.976,0,18.484,0z M22.593,6.154h-4.305
	C17.95,4.4,16.543,3.077,14.854,3.077h-4.708c-1.688,0-3.123,1.323-3.433,3.077H2.407V6.031c0-1.2,0.422-2.338,1.209-3.169
	C4.405,2,5.417,1.539,6.516,1.539h11.998c1.097,0,2.139,0.461,2.898,1.323c0.786,0.862,1.209,1.969,1.209,3.169v0.123H22.593z
	 M22.593,18.461H2.407v-1.539h20.186V18.461z M22.593,11.846v3.538H2.407v-3.538l3.8-4.154h1.829V6.923
	c0-1.262,0.957-2.308,2.11-2.308h4.708c1.154,0,2.111,1.046,2.111,2.308v0.769h1.829L22.593,11.846z"/> 
    </symbol>
    <symbol id="icon-phone" viewBox="-1.731 0 28 24.001">
       <path d="M25.264,20.957c-0.222,0.189-0.444,0.38-0.667,0.57c-0.442,0.381-0.842,0.724-1.242,1.104
	c-0.178,0.152-0.399,0.229-0.621,0.229c-0.178,0-0.4-0.076-0.577-0.19c-0.355-0.267-0.355-0.724-0.045-1.026
	c0.444-0.418,0.889-0.799,1.332-1.18c0.221-0.189,0.444-0.38,0.665-0.57c0.666-0.57,0.666-1.142,0-1.674
	c-1.153-0.988-2.308-2.016-3.463-2.967c-0.621-0.531-1.286-0.531-1.908,0l-0.178,0.152c-0.666,0.57-1.332,1.141-1.997,1.712
	c-0.622,0.569-1.287,0.38-1.599,0.228c-0.177-0.076-0.354-0.152-0.533-0.228c-0.311-0.114-0.621-0.267-0.933-0.418
	c-1.997-1.065-3.818-2.511-5.593-4.374c-0.932-0.989-1.599-1.902-2.042-2.814c-0.312-0.608,0-1.027,0.311-1.293
	C6.752,7.722,7.33,7.228,7.863,6.772l0.4-0.343c0.666-0.57,0.666-1.103,0-1.673C7.862,4.412,7.462,4.07,7.107,3.766L6.042,2.853
	C5.641,2.51,5.242,2.168,4.843,1.864c-0.622-0.533-1.288-0.533-1.909,0C2.622,2.092,2.357,2.358,2.09,2.586
	c-0.443,0.38-0.843,0.761-1.331,1.103C0.402,3.956-0.13,3.956-0.441,3.651c-0.31-0.304-0.31-0.76,0.044-1.026
	C0.048,2.282,0.447,1.902,0.89,1.56c0.312-0.267,0.578-0.495,0.888-0.761c1.287-1.065,2.974-1.065,4.261,0
	c0.4,0.342,0.8,0.685,1.199,1.027l1.067,0.913c0.4,0.342,0.801,0.685,1.155,1.027c1.332,1.141,1.332,2.586,0,3.728l-0.4,0.341
	C8.572,8.292,8.039,8.71,7.506,9.167c0.4,0.76,0.933,1.483,1.731,2.32c1.643,1.75,3.33,3.042,5.194,4.07
	c0.223,0.113,0.487,0.229,0.8,0.342c0.132,0.037,0.221,0.076,0.355,0.151c0.621-0.532,1.243-1.065,1.819-1.56l0.178-0.152
	c1.288-1.064,2.974-1.064,4.262,0c1.155,0.951,2.309,1.979,3.463,2.967C26.596,18.409,26.596,19.854,25.264,20.957z M2.533,13.236
	c-0.355,0.228-0.444,0.685-0.176,0.988c0.176,0.19,0.399,0.305,0.665,0.305c0.178,0,0.355-0.038,0.488-0.152
	c0.4-0.229,0.444-0.686,0.178-0.988C3.423,13.084,2.89,13.008,2.533,13.236z M0.803,10.726c-0.401,0.19-0.578,0.609-0.356,0.989
	c0.133,0.228,0.444,0.38,0.755,0.38c0.133,0,0.267-0.038,0.399-0.076C2,11.829,2.178,11.411,1.955,11.03
	C1.691,10.65,1.202,10.536,0.803,10.726z M4.575,15.594c-0.355,0.266-0.355,0.723-0.088,1.027c0.177,0.152,0.4,0.229,0.621,0.229
	c0.178,0,0.4-0.076,0.577-0.19c0.354-0.267,0.354-0.724,0.089-1.027C5.465,15.366,4.932,15.328,4.575,15.594z M-0.885,6.542
	c0.444,0,0.842-0.342,0.799-0.723c0-0.38-0.4-0.723-0.844-0.685c-0.444,0-0.844,0.342-0.798,0.723
	C-1.727,6.238-1.373,6.542-0.885,6.542L-0.885,6.542z M19.671,22.555c-0.444,0-0.844,0.305-0.844,0.723
	c0,0.381,0.355,0.724,0.844,0.724l0,0c0.444,0,0.844-0.304,0.844-0.724C20.514,22.859,20.115,22.555,19.671,22.555z M0.581,8.444
	c-0.178-0.38-0.622-0.57-1.066-0.418c-0.444,0.152-0.666,0.532-0.488,0.912c0.133,0.304,0.444,0.494,0.8,0.494
	c0.088,0,0.177,0,0.265-0.038C0.536,9.205,0.759,8.824,0.581,8.444z M13.588,20.881c-0.399-0.189-0.932-0.038-1.154,0.305
	c-0.223,0.344-0.044,0.799,0.355,0.989c0.133,0.076,0.268,0.076,0.399,0.076c0.311,0,0.576-0.151,0.754-0.38
	C14.121,21.527,13.988,21.07,13.588,20.881z M16.563,22.021c-0.444-0.113-0.933,0.076-1.065,0.457
	c-0.134,0.381,0.089,0.799,0.532,0.914c0.089,0.037,0.178,0.037,0.268,0.037c0.355,0,0.665-0.189,0.799-0.494
	C17.228,22.555,17.008,22.174,16.563,22.021z M10.747,19.436L10.747,19.436c-0.399-0.228-0.888-0.151-1.153,0.19
	c-0.267,0.342-0.178,0.761,0.221,0.989c0.133,0.076,0.312,0.113,0.489,0.113c0.268,0,0.533-0.113,0.71-0.304
	C11.192,20.083,11.103,19.626,10.747,19.436z M6.929,17.725c-0.312,0.303-0.268,0.76,0.089,1.026c0.176,0.114,0.355,0.19,0.576,0.19
	c0.222,0,0.444-0.076,0.622-0.229c0.312-0.304,0.268-0.761-0.089-1.026C7.773,17.382,7.24,17.42,6.929,17.725z"/> 
    </symbol>
    <symbol id="icon-search-plus" viewBox="0 0 21 21">
       <path d="M9.545,19.092c2.136,0,4.109-0.705,5.702-1.895l3.4,3.4c0.27,0.27,0.623,0.404,0.976,0.404c0.353,0,0.706-0.135,0.975-0.404
	c0.539-0.538,0.539-1.411,0-1.95l-3.399-3.4c1.189-1.591,1.895-3.565,1.895-5.701c0-5.265-4.283-9.547-9.547-9.547
	s-9.547,4.282-9.547,9.547C-0.001,14.809,4.281,19.092,9.545,19.092z M9.545,2.756c3.743,0,6.789,3.045,6.789,6.789
	c0,3.743-3.045,6.789-6.789,6.789c-3.744,0-6.789-3.045-6.789-6.789C2.756,5.801,5.802,2.756,9.545,2.756z"/> <path d="M5.879,11.13h2.31v2.415c0,0.754,0.611,1.365,1.365,1.365s1.365-0.611,1.365-1.365V11.13h2.521
	c0.754,0,1.365-0.611,1.365-1.366c0-0.753-0.611-1.364-1.365-1.364H10.92V5.984c0-0.754-0.611-1.365-1.365-1.365
	S8.189,5.23,8.189,5.984V8.4h-2.31c-0.754,0-1.365,0.611-1.365,1.364C4.514,10.519,5.125,11.13,5.879,11.13z"/> 
    </symbol>
    <symbol id="icon-search" viewBox="0 0 22.141 22.35">
       <path d="M8.897,17.792C3.991,17.792,0,13.802,0,8.897C0,3.992,3.991,0,8.897,0c4.907,0,8.896,3.991,8.896,8.897
	C17.793,13.803,13.803,17.792,8.897,17.792z M8.897,2.222c-3.681,0-6.675,2.994-6.675,6.675c0,3.68,2.994,6.674,6.675,6.674
	c3.68,0,6.674-2.994,6.674-6.674C15.571,5.216,12.577,2.222,8.897,2.222z"/> <path d="M21.03,22.35c-0.283,0-0.568-0.108-0.785-0.325l-6.67-6.67c-0.434-0.433-0.434-1.138,0-1.571s1.137-0.434,1.572,0
	l6.669,6.67c0.434,0.433,0.434,1.138,0,1.571C21.599,22.241,21.314,22.35,21.03,22.35z"/> 
    </symbol>
    <symbol id="icon-squares" viewBox="0 0 100 63.334">
       <g id="XMLID_164_"> <g id="XMLID_293_"> <path id="XMLID_294_" d="M0,26.667h26.667V0H0V26.667z M36.667,26.667h26.667V0H36.667V26.667z M73.334,0v26.668H100V0H73.334z
			 M0,63.333h26.667V36.667H0V63.333z M36.667,63.333h26.667V36.667H36.667V63.333z M73.334,63.333H100V36.667H73.334V63.333
			L73.334,63.333z"/> </g> </g> 
    </symbol>
    <symbol id="icon-twitter" viewBox="0.002 147.441 611.998 497.117">
       <g> <path d="M612,206.258c-22.525,9.981-46.693,16.75-72.088,19.772c25.93-15.527,45.777-40.155,55.184-69.411
		c-24.32,14.379-51.168,24.82-79.773,30.48c-22.906-24.437-55.49-39.658-91.629-39.658c-69.334,0-125.552,56.217-125.552,125.513
		c0,9.828,1.109,19.427,3.251,28.605c-104.326-5.24-196.835-55.223-258.75-131.174c-10.823,18.51-16.98,40.078-16.98,63.101
		c0,43.559,22.181,81.993,55.835,104.479c-20.575-0.688-39.926-6.348-56.867-15.756v1.568c0,60.806,43.291,111.554,100.693,123.104
		c-10.517,2.83-21.607,4.398-33.08,4.398c-8.107,0-15.947-0.805-23.634-2.333c15.985,49.905,62.336,86.198,117.253,87.192
		c-42.947,33.654-97.099,53.655-155.916,53.655c-10.134,0-20.116-0.612-29.944-1.721c55.567,35.681,121.536,56.483,192.438,56.483
		c230.948,0,357.188-191.291,357.188-357.188l-0.422-16.253C573.873,253.526,595.21,231.422,612,206.258z"/> </g> 
    </symbol>
    <symbol id="icon-whatsapp" viewBox="0 0 19.181 19">
       <path d="M19.181,19H9.675c-5.242,0-9.506-4.261-9.506-9.5c0-5.238,4.264-9.5,9.506-9.5s9.506,4.262,9.506,9.5V19z M9.675,1.333
	c-4.506,0-8.172,3.664-8.172,8.167s3.666,8.167,8.172,8.167h8.172V9.5C17.847,4.997,14.181,1.333,9.675,1.333z"/> <path d="M14.396,8.098c0.774,0,1.403,0.627,1.403,1.402s-0.628,1.402-1.403,1.402c-0.775,0-1.403-0.627-1.403-1.402
	S13.621,8.098,14.396,8.098z"/> <path d="M9.675,8.098c0.775,0,1.403,0.627,1.403,1.402c0,0.774-0.628,1.402-1.403,1.402S8.271,10.275,8.271,9.5
	C8.271,8.726,8.9,8.098,9.675,8.098z"/> <path d="M4.954,8.098c0.774,0,1.402,0.627,1.402,1.402s-0.628,1.402-1.402,1.402c-0.775,0-1.403-0.627-1.403-1.402
	S4.179,8.098,4.954,8.098z"/> 
    </symbol>
    <symbol id="icon-youtube" viewBox="7.5 0 75 90">
       <g> <path id="YouTube" d="M70.939,65.832H66l0.023-2.869c0-1.275,1.047-2.318,2.326-2.318h0.314c1.281,0,2.332,1.043,2.332,2.318
		L70.939,65.832z M52.413,59.684c-1.253,0-2.278,0.842-2.278,1.873V75.51c0,1.029,1.025,1.869,2.278,1.869
		c1.258,0,2.284-0.84,2.284-1.869V61.557C54.697,60.525,53.671,59.684,52.413,59.684z M82.5,51.879v26.544
		C82.5,84.79,76.979,90,70.23,90H19.771C13.02,90,7.5,84.79,7.5,78.423V51.879c0-6.367,5.52-11.578,12.271-11.578H70.23
		C76.979,40.301,82.5,45.512,82.5,51.879z M23.137,81.305l-0.004-27.961l6.255,0.002v-4.143l-16.674-0.025v4.073l5.205,0.015v28.039
		H23.137z M41.887,57.509h-5.215v14.931c0,2.16,0.131,3.24-0.008,3.621c-0.424,1.158-2.33,2.389-3.073,0.125
		c-0.126-0.396-0.015-1.59-0.017-3.643l-0.021-15.034h-5.186l0.016,14.798c0.004,2.269-0.051,3.959,0.018,4.729
		c0.127,1.356,0.082,2.938,1.341,3.843c2.346,1.689,6.843-0.252,7.968-2.668l-0.01,3.083l4.188,0.005L41.887,57.509L41.887,57.509z
		 M58.57,74.607L58.559,62.18c-0.004-4.736-3.547-7.572-8.355-3.74l0.021-9.238l-5.209,0.008L44.99,81.1l4.283-0.063l0.391-1.986
		C55.137,84.072,58.578,80.631,58.57,74.607z M74.891,72.96l-3.91,0.021c-0.002,0.155-0.008,0.334-0.01,0.529v2.182
		c0,1.168-0.965,2.119-2.137,2.119h-0.766c-1.174,0-2.139-0.951-2.139-2.119V75.45v-2.4v-3.097h8.953v-3.37
		c0-2.463-0.063-4.925-0.267-6.333c-0.642-4.454-6.894-5.161-10.052-2.881c-0.99,0.712-1.748,1.665-2.188,2.945
		c-0.443,1.281-0.665,3.031-0.665,5.254v7.41C61.714,85.296,76.676,83.555,74.891,72.96z M54.833,32.732
		c0.269,0.654,0.687,1.184,1.254,1.584c0.56,0.394,1.276,0.592,2.134,0.592c0.752,0,1.418-0.203,1.998-0.622
		c0.578-0.417,1.065-1.04,1.463-1.871l-0.099,2.046h5.813V9.74H62.82v19.24c0,1.042-0.858,1.895-1.907,1.895
		c-1.043,0-1.904-0.853-1.904-1.895V9.74h-4.776v16.674c0,2.124,0.039,3.54,0.103,4.258C54.4,31.385,54.564,32.069,54.833,32.732z
		 M37.217,18.77c0-2.373,0.198-4.226,0.591-5.562c0.396-1.331,1.107-2.401,2.137-3.208c1.027-0.811,2.342-1.217,3.941-1.217
		c1.345,0,2.497,0.264,3.459,0.781c0.967,0.52,1.713,1.195,2.229,2.028c0.526,0.836,0.885,1.695,1.075,2.574
		c0.195,0.891,0.291,2.235,0.291,4.048v6.252c0,2.293-0.092,3.98-0.271,5.051c-0.177,1.074-0.558,2.07-1.146,3.004
		c-0.58,0.924-1.33,1.615-2.237,2.056c-0.918,0.445-1.968,0.663-3.154,0.663c-1.325,0-2.441-0.183-3.361-0.565
		c-0.923-0.38-1.636-0.953-2.144-1.714c-0.513-0.762-0.874-1.69-1.092-2.772c-0.219-1.081-0.323-2.707-0.323-4.874L37.217,18.77
		L37.217,18.77z M41.77,28.59c0,1.4,1.042,2.543,2.311,2.543c1.27,0,2.308-1.143,2.308-2.543V15.43c0-1.398-1.038-2.541-2.308-2.541
		c-1.269,0-2.311,1.143-2.311,2.541V28.59z M25.682,35.235h5.484l0.006-18.96l6.48-16.242h-5.998l-3.445,12.064L24.715,0h-5.936
		l6.894,16.284L25.682,35.235z"/> </g> 
    </symbol></svg>